<?xml version="1.0" encoding="UTF-8"?>
<!DOCTYPE svg PUBLIC "-//W3C//DTD SVG 1.1//EN" "http://www.w3.org/Graphics/SVG/1.1/DTD/svg11.dtd">
<svg xmlns="http://www.w3.org/2000/svg" version="1.1" width="512px" height="512px" style="shape-rendering:geometricPrecision; text-rendering:geometricPrecision; image-rendering:optimizeQuality; fill-rule:evenodd; clip-rule:evenodd" xmlns:xlink="http://www.w3.org/1999/xlink">
<g><path style="opacity:0.936" fill="#000000" d="M 511.5,92.5 C 511.5,95.5 511.5,98.5 511.5,101.5C 494.402,149.289 477.569,197.289 461,245.5C 451.857,264.635 436.69,275.135 415.5,277C 326.501,277.5 237.501,277.667 148.5,277.5C 150.693,295.35 153.859,313.017 158,330.5C 163.007,340.926 171.173,347.426 182.5,350C 271.833,350.333 361.167,350.667 450.5,351C 456.439,353.817 458.273,358.317 456,364.5C 454.363,366.81 452.196,368.31 449.5,369C 362.167,369.667 274.833,369.667 187.5,369C 162.141,366.978 145.641,353.811 138,329.5C 123.556,237.056 108.556,144.723 93,52.5C 88.578,41.744 80.7447,34.9107 69.5,32C 47.5364,30.7337 25.5364,30.067 3.5,30C 2.29493,28.6244 0.961599,27.4577 -0.5,26.5C -0.5,23.5 -0.5,20.5 -0.5,17.5C 0.854084,15.3041 2.85408,13.8041 5.5,13C 26.1667,12.3333 46.8333,12.3333 67.5,13C 89.9571,16.4574 104.79,28.9574 112,50.5C 114.119,62.7176 116.286,74.8843 118.5,87C 247.5,87.3333 376.5,87.6667 505.5,88C 508.146,88.8041 510.146,90.3041 511.5,92.5 Z M 121.5,105.5 C 244.167,105.5 366.833,105.5 489.5,105.5C 474.967,148.907 460.134,192.241 445,235.5C 440.495,247.506 431.995,255.006 419.5,258C 328.165,258.833 236.832,258.667 145.5,257.5C 137.035,206.912 129.035,156.245 121.5,105.5 Z"/></g>
<g><path style="opacity:0.934" fill="#000000" d="M 192.5,399.5 C 213.127,397.089 229.627,404.089 242,420.5C 253.796,440.603 253.13,460.27 240,479.5C 221.37,499.048 199.87,502.882 175.5,491C 155.121,476.871 147.954,457.704 154,433.5C 160.517,414.851 173.351,403.518 192.5,399.5 Z M 196.5,417.5 C 217.689,417.583 229.689,428.083 232.5,449C 229.159,470.163 216.825,480.163 195.5,479C 176.951,473.425 168.784,460.925 171,441.5C 175.192,428.805 183.692,420.805 196.5,417.5 Z"/></g>
<g><path style="opacity:0.934" fill="#000000" d="M 373.5,399.5 C 402.465,397.382 421.298,410.049 430,437.5C 434.126,468.434 421.293,488.268 391.5,497C 368.963,500.144 351.463,492.31 339,473.5C 327.664,449.52 331.497,428.353 350.5,410C 357.506,404.827 365.173,401.327 373.5,399.5 Z M 377.5,417.5 C 395.171,416.744 406.671,424.744 412,441.5C 414.232,460.883 406.065,473.383 387.5,479C 365.885,480.182 353.552,470.016 350.5,448.5C 352.349,431.731 361.349,421.397 377.5,417.5 Z"/></g>
</svg>
