<?xml version="1.0" encoding="UTF-8"?>
<!DOCTYPE svg PUBLIC "-//W3C//DTD SVG 1.1//EN" "http://www.w3.org/Graphics/SVG/1.1/DTD/svg11.dtd">
<svg xmlns="http://www.w3.org/2000/svg" version="1.1" width="512px" height="512px" style="shape-rendering:geometricPrecision; text-rendering:geometricPrecision; image-rendering:optimizeQuality; fill-rule:evenodd; clip-rule:evenodd" xmlns:xlink="http://www.w3.org/1999/xlink">
<g><path style="opacity:0.946" fill="#000000" d="M 131.5,52.5 C 165.812,49.9059 196.479,59.0726 223.5,80C 234.014,90.6809 244.681,101.181 255.5,111.5C 266.319,101.181 276.986,90.6809 287.5,80C 330.809,48.2778 376.809,43.9444 425.5,67C 475.48,97.4701 496.647,141.97 489,200.5C 482.259,246.153 461.759,284.32 427.5,315C 371.794,363.042 315.794,410.708 259.5,458C 254.632,459.186 250.298,458.186 246.5,455C 190.167,406.667 133.833,358.333 77.5,310C 26.6763,259.529 10.5096,199.696 29,130.5C 48.649,85.3431 82.8156,59.3431 131.5,52.5 Z M 136.5,74.5 C 167.91,73.3536 194.91,83.5202 217.5,105C 226.803,115.304 236.47,125.304 246.5,135C 252.5,139.667 258.5,139.667 264.5,135C 278.249,120.916 292.249,107.249 306.5,94C 349.663,66.6562 391.663,68.3229 432.5,99C 465.33,130.8 475.83,168.967 464,213.5C 455.172,248.625 437.005,277.792 409.5,301C 358.314,345.021 306.98,388.854 255.5,432.5C 198.558,384.394 142.058,335.728 86,286.5C 50.1108,246.612 37.1108,200.279 47,147.5C 62.1327,105.032 91.966,80.6982 136.5,74.5 Z"/></g>
</svg>
