<?xml version="1.0" encoding="UTF-8"?>
<!DOCTYPE svg PUBLIC "-//W3C//DTD SVG 1.1//EN" "http://www.w3.org/Graphics/SVG/1.1/DTD/svg11.dtd">
<svg xmlns="http://www.w3.org/2000/svg" version="1.1" width="500px" height="500px" style="shape-rendering:geometricPrecision; text-rendering:geometricPrecision; image-rendering:optimizeQuality; fill-rule:evenodd; clip-rule:evenodd" xmlns:xlink="http://www.w3.org/1999/xlink">
<g><path style="opacity:1" fill="#b6d3a7" d="M -0.5,-0.5 C 166.167,-0.5 332.833,-0.5 499.5,-0.5C 499.5,166.167 499.5,332.833 499.5,499.5C 332.833,499.5 166.167,499.5 -0.5,499.5C -0.5,332.833 -0.5,166.167 -0.5,-0.5 Z"/></g>
<g><path style="opacity:1" fill="#161915" d="M 239.5,78.5 C 315.606,75.7789 370.106,108.446 403,176.5C 418.53,217.952 418.197,259.285 402,300.5C 399.161,306.851 395.828,312.851 392,318.5C 391.5,318.333 391,318.167 390.5,318C 414.342,276.658 419.175,233.158 405,187.5C 377.994,119.192 327.661,83.5255 254,80.5C 187.123,84.0913 139.456,116.091 111,176.5C 99.1562,206.591 96.1562,237.591 102,269.5C 106.148,286.628 112.648,302.794 121.5,318C 120.365,318.749 119.365,318.583 118.5,317.5C 95.2353,274.675 91.0687,230.009 106,183.5C 128.035,129.805 167.201,95.6381 223.5,81C 229.025,80.4804 234.358,79.6471 239.5,78.5 Z"/></g>
<g><path style="opacity:1" fill="#181818" d="M 185.5,268.5 C 185.5,267.833 185.833,267.5 186.5,267.5C 191.456,270.108 196.79,271.442 202.5,271.5C 213.708,268.722 225.041,266.556 236.5,265C 251.597,253.238 265.43,240.072 278,225.5C 283.171,217.828 287.838,209.828 292,201.5C 293.957,197.673 294.957,193.673 295,189.5C 290.996,198.179 286.496,206.513 281.5,214.5C 281.167,214.5 280.833,214.5 280.5,214.5C 280.083,213.876 279.416,213.543 278.5,213.5C 259.706,217.403 240.706,219.403 221.5,219.5C 234.505,220.712 247.505,220.712 260.5,219.5C 262.735,219.205 264.735,219.539 266.5,220.5C 252.885,221.986 239.218,222.819 225.5,223C 227.81,223.497 230.143,223.663 232.5,223.5C 230.735,224.461 228.735,224.795 226.5,224.5C 224.396,224.201 222.396,224.534 220.5,225.5C 224.655,227.185 228.988,227.851 233.5,227.5C 231.052,228.473 228.385,228.806 225.5,228.5C 223.25,228.181 221.25,228.681 219.5,230C 221.623,231.194 223.957,231.86 226.5,232C 235.827,232.5 245.161,232.666 254.5,232.5C 255.167,232.5 255.5,232.833 255.5,233.5C 243.445,234.897 231.445,234.564 219.5,232.5C 219.167,232.833 218.833,233.167 218.5,233.5C 219.376,234.251 220.376,234.751 221.5,235C 235.545,235.798 249.545,235.632 263.5,234.5C 263.5,235.167 263.5,235.833 263.5,236.5C 255.635,245.532 246.968,253.699 237.5,261C 235.283,262.275 232.949,263.275 230.5,264C 221.586,264.861 212.753,266.027 204,267.5C 194.041,267.434 185.541,263.934 178.5,257C 172.61,252.026 167.444,252.526 163,258.5C 162.333,260.167 162.333,261.833 163,263.5C 164.53,267.09 165.864,270.757 167,274.5C 167.556,286.443 172.056,296.61 180.5,305C 182.5,305.667 184.5,305.667 186.5,305C 193.434,302.521 200.434,300.355 207.5,298.5C 208.167,298.5 208.5,298.833 208.5,299.5C 202.089,301.359 195.756,303.526 189.5,306C 183.533,307.772 178.699,306.272 175,301.5C 173,298.167 171,294.833 169,291.5C 166.661,281.437 164.161,271.437 161.5,261.5C 161.428,255.739 164.261,252.739 170,252.5C 172.253,252.631 174.419,253.131 176.5,254C 181.228,257.726 186.228,261.059 191.5,264C 196.07,264.462 200.57,265.296 205,266.5C 207.149,265.701 209.316,264.867 211.5,264C 208.263,261.566 205.097,259.066 202,256.5C 199.499,249.356 196.165,242.69 192,236.5C 190.068,230.327 189.068,223.994 189,217.5C 187.764,216.601 186.93,215.434 186.5,214C 187.607,212.56 187.607,211.06 186.5,209.5C 188.225,204.066 189.891,198.566 191.5,193C 190.483,190.213 190.316,187.38 191,184.5C 194.61,177.205 199.443,170.705 205.5,165C 216.742,158.554 227.742,151.887 238.5,145C 242.951,144.87 247.284,144.204 251.5,143C 260.291,143.096 268.958,143.763 277.5,145C 290.5,149.573 301,157.406 309,168.5C 309.206,171.623 309.873,174.623 311,177.5C 314.003,181.876 317.003,186.209 320,190.5C 322.225,198.005 321.891,205.338 319,212.5C 318.667,217.833 318.333,223.167 318,228.5C 315.895,231.665 315.395,234.999 316.5,238.5C 314.374,242.585 312.374,246.752 310.5,251C 307.257,251.908 304.923,253.908 303.5,257C 291.579,262.796 279.579,268.296 267.5,273.5C 264.449,272.078 261.615,272.411 259,274.5C 255.414,272.295 251.581,271.962 247.5,273.5C 238.57,272.725 229.737,271.391 221,269.5C 214.904,270.966 208.737,271.966 202.5,272.5C 196.384,272.887 190.718,271.554 185.5,268.5 Z"/></g>
<g><path style="opacity:1" fill="#eaeaea" d="M 203.5,194.5 C 203.704,199.276 203.704,204.276 203.5,209.5C 202.5,209.5 201.5,209.5 200.5,209.5C 200.395,204.256 201.395,199.256 203.5,194.5 Z"/></g>
<g><path style="opacity:1" fill="#f6f6f6" d="M 272.5,199.5 C 273.634,201.966 273.801,204.633 273,207.5C 271.644,208.38 270.144,208.714 268.5,208.5C 268.34,206.801 268.506,205.134 269,203.5C 270.376,202.295 271.542,200.962 272.5,199.5 Z"/></g>
<g><path style="opacity:1" fill="#d9d9d9" d="M 308.5,200.5 C 310.942,200.354 311.609,201.187 310.5,203C 307.947,203.761 305.447,204.594 303,205.5C 302.517,204.552 302.351,203.552 302.5,202.5C 304.786,202.405 306.786,201.738 308.5,200.5 Z"/></g>
<g><path style="opacity:1" fill="#f8f8f8" d="M 277.5,194.5 C 278.485,198.634 278.818,202.968 278.5,207.5C 277.5,207.5 276.5,207.5 275.5,207.5C 274.975,202.86 275.642,198.527 277.5,194.5 Z"/></g>
<g><path style="opacity:1" fill="#ececec" d="M 266.5,192.5 C 267.797,193.849 267.63,195.182 266,196.5C 265.805,195.181 265.972,193.847 266.5,192.5 Z"/></g>
<g><path style="opacity:1" fill="#e5e5e5" d="M 259.5,162.5 C 260.497,162.47 261.164,162.97 261.5,164C 257.056,181.722 249.056,197.555 237.5,211.5C 236.417,210.635 236.251,209.635 237,208.5C 247.955,194.922 255.455,179.589 259.5,162.5 Z"/></g>
<g><path style="opacity:1" fill="#bcbcbc" d="M 305.5,191.5 C 306.376,191.369 307.043,191.702 307.5,192.5C 305.993,196.355 305.326,196.021 305.5,191.5 Z"/></g>
<g><path style="opacity:1" fill="#e5e5e5" d="M 267.5,164.5 C 268.641,167.64 268.808,170.973 268,174.5C 267,177.833 266,181.167 265,184.5C 259.863,193.435 255.03,202.435 250.5,211.5C 249.5,211.5 248.5,211.5 247.5,211.5C 252.036,202.77 256.87,194.103 262,185.5C 264.619,178.69 266.452,171.69 267.5,164.5 Z"/></g>
<g><path style="opacity:1" fill="#e4e4e4" d="M 314.5,190.5 C 315.496,190.414 316.329,190.748 317,191.5C 314.338,213.82 305.672,233.487 291,250.5C 284.571,257.267 277.904,263.6 271,269.5C 269.743,269.15 269.409,268.483 270,267.5C 285.778,254.067 298.112,238.067 307,219.5C 310.841,210.149 313.341,200.483 314.5,190.5 Z"/></g>
<g><path style="opacity:1" fill="#e6e6e6" d="M 255.5,163.5 C 252.544,182.071 244.211,198.071 230.5,211.5C 229.479,210.998 229.312,210.332 230,209.5C 235.053,203.448 239.719,197.115 244,190.5C 247.958,181.43 251.791,172.43 255.5,163.5 Z"/></g>
<g><path style="opacity:1" fill="#e1e1e1" d="M 203.5,183.5 C 204.239,183.369 204.906,183.536 205.5,184C 197.91,190.013 193.576,197.846 192.5,207.5C 191.054,206.829 190.388,205.662 190.5,204C 191.099,200.771 191.932,197.604 193,194.5C 196.676,190.991 200.176,187.324 203.5,183.5 Z"/></g>
<g><path style="opacity:1" fill="#f7f7f7" d="M 282.5,188.5 C 283.817,194.346 283.817,200.346 282.5,206.5C 281.914,206.291 281.414,205.957 281,205.5C 279.992,199.59 280.492,193.923 282.5,188.5 Z"/></g>
<g><path style="opacity:1" fill="#dfdfdf" d="M 267.5,180.5 C 268.434,181.568 268.768,182.901 268.5,184.5C 265.885,192.392 261.718,199.392 256,205.5C 258.151,199.538 261.151,193.871 265,188.5C 266.136,185.904 266.969,183.237 267.5,180.5 Z"/></g>
<g><path style="opacity:1" fill="#dedede" d="M 204.5,186.5 C 205.598,187.601 205.765,188.934 205,190.5C 200.553,196.005 198.387,202.339 198.5,209.5C 197.5,209.5 196.5,209.5 195.5,209.5C 195.181,200.443 198.181,192.777 204.5,186.5 Z"/></g>
<g><path style="opacity:1" fill="#e9e9e9" d="M 307.5,185.5 C 311.64,188.635 312.473,192.635 310,197.5C 308.759,199.421 307.259,199.754 305.5,198.5C 309.058,194.974 309.392,191.14 306.5,187C 307.056,186.617 307.389,186.117 307.5,185.5 Z"/></g>
<g><path style="opacity:1" fill="#dddddd" d="M 307.5,179.5 C 311.171,181.345 313.004,184.345 313,188.5C 310.517,185.861 308.684,182.861 307.5,179.5 Z"/></g>
<g><path style="opacity:1" fill="#e1e1e1" d="M 285.5,182.5 C 288.815,184.649 290.149,187.815 289.5,192C 289.888,195.638 288.888,198.805 286.5,201.5C 286.814,195.228 286.481,188.895 285.5,182.5 Z"/></g>
<g><path style="opacity:1" fill="#e1e1e1" d="M 249.5,165.5 C 250.376,165.369 251.043,165.702 251.5,166.5C 246.069,183.226 237.736,198.226 226.5,211.5C 225.479,210.998 225.312,210.332 226,209.5C 236.193,196.114 244.027,181.448 249.5,165.5 Z"/></g>
<g><path style="opacity:1" fill="#e6e6e6" d="M 237.5,146.5 C 238.525,146.897 238.692,147.563 238,148.5C 225.303,160.218 216.97,174.552 213,191.5C 211.206,199.472 209.539,207.472 208,215.5C 208.022,188.142 217.855,165.142 237.5,146.5 Z"/></g>
<g><path style="opacity:1" fill="#686868" d="M 268.5,184.5 C 268.768,182.901 268.434,181.568 267.5,180.5C 267.987,179.527 268.487,178.527 269,177.5C 269.796,180.039 269.629,182.372 268.5,184.5 Z"/></g>
<g><path style="opacity:1" fill="#e3e3e3" d="M 287.5,177.5 C 290.518,179.818 292.851,182.818 294.5,186.5C 293.667,188.167 292.833,189.833 292,191.5C 290.743,186.678 289.243,182.012 287.5,177.5 Z"/></g>
<g><path style="opacity:1" fill="#ebebeb" d="M 241.5,167.5 C 242.573,168.251 242.74,169.251 242,170.5C 238.508,178.153 234.508,185.487 230,192.5C 229.333,191.5 229.333,190.5 230,189.5C 233.604,181.955 237.437,174.622 241.5,167.5 Z"/></g>
<g><path style="opacity:1" fill="#ececec" d="M 205.5,177.5 C 207.028,177.517 207.528,178.184 207,179.5C 202.472,182.017 198.638,185.35 195.5,189.5C 194.675,190.386 193.675,190.719 192.5,190.5C 192.491,188.692 192.991,187.025 194,185.5C 197.464,182.195 201.297,179.528 205.5,177.5 Z"/></g>
<g><path style="opacity:1" fill="#e9e9e9" d="M 245.5,166.5 C 246.376,166.369 247.043,166.702 247.5,167.5C 241.538,182.098 234.038,195.764 225,208.5C 224.333,207.167 224.333,205.833 225,204.5C 233.132,192.572 239.965,179.905 245.5,166.5 Z"/></g>
<g><path style="opacity:1" fill="#e7e7e7" d="M 300.5,164.5 C 301.87,164.856 302.87,165.69 303.5,167C 302.415,183.508 298.581,199.341 292,214.5C 281.972,235.249 269.472,254.249 254.5,271.5C 252.185,270.579 252.018,269.246 254,267.5C 272.61,246.292 286.61,222.292 296,195.5C 298.387,185.288 299.887,174.955 300.5,164.5 Z"/></g>
<g><path style="opacity:1" fill="#e4e4e4" d="M 207.5,172.5 C 209.942,172.354 210.609,173.187 209.5,175C 205.121,176.023 201.121,177.856 197.5,180.5C 196.718,178.671 197.384,177.171 199.5,176C 202.158,174.522 204.825,173.355 207.5,172.5 Z"/></g>
<g><path style="opacity:1" fill="#e3e3e3" d="M 288.5,170.5 C 291.783,172.953 294.616,175.953 297,179.5C 297.635,181.635 297.301,183.635 296,185.5C 294.487,181.319 292.154,177.652 289,174.5C 288.51,173.207 288.343,171.873 288.5,170.5 Z"/></g>
<g><path style="opacity:1" fill="#eaeaea" d="M 304.5,168.5 C 305.805,170.397 306.471,172.731 306.5,175.5C 305.29,191.63 301.124,206.964 294,221.5C 284.525,240.155 272.858,257.155 259,272.5C 257.743,272.15 257.409,271.483 258,270.5C 277.76,247.991 292.093,222.324 301,193.5C 302.577,185.217 303.744,176.884 304.5,168.5 Z"/></g>
<g><path style="opacity:1" fill="#e4e4e4" d="M 209.5,167.5 C 210.5,167.5 211.5,167.5 212.5,167.5C 212.5,168.5 212.5,169.5 212.5,170.5C 208.739,170.648 205.239,171.648 202,173.5C 201.312,172.668 201.479,172.002 202.5,171.5C 205.059,170.392 207.392,169.059 209.5,167.5 Z"/></g>
<g><path style="opacity:1" fill="#e2e2e2" d="M 289.5,164.5 C 294.317,166.094 297.317,169.427 298.5,174.5C 298.167,175.167 297.833,175.833 297.5,176.5C 295.501,174.507 294.001,172.173 293,169.5C 290.444,168.781 289.277,167.114 289.5,164.5 Z"/></g>
<g><path style="opacity:1" fill="#eaeaea" d="M 206.5,209.5 C 205.662,209.158 205.328,208.492 205.5,207.5C 204.468,187.25 210.968,169.916 225,155.5C 220.497,163.498 216.164,171.831 212,180.5C 209.201,189.994 207.368,199.66 206.5,209.5 Z"/></g>
<g><path style="opacity:1" fill="#e1e1e1" d="M 274.5,159.5 C 276.045,160.23 276.878,161.563 277,163.5C 278.397,170.452 278.73,177.452 278,184.5C 277,185.5 276,186.5 275,187.5C 274.5,178.173 274.334,168.839 274.5,159.5 Z"/></g>
<g><path style="opacity:1" fill="#e9e9e9" d="M 263.5,161.5 C 264.5,161.5 265.5,161.5 266.5,161.5C 264.025,179.112 257.192,194.779 246,208.5C 245.517,209.448 245.351,210.448 245.5,211.5C 244.5,211.5 243.5,211.5 242.5,211.5C 247.032,202.106 251.865,192.772 257,183.5C 259.484,176.223 261.651,168.89 263.5,161.5 Z"/></g>
<g><path style="opacity:1" fill="#dbdbdb" d="M 217.5,159.5 C 217.633,161.771 216.633,163.938 214.5,166C 212.5,166.667 210.5,166.667 208.5,166C 211.402,163.583 214.402,161.416 217.5,159.5 Z"/></g>
<g><path style="opacity:1" fill="#f0f0f0" d="M 290.5,160.5 C 295.697,160.857 298.197,163.524 298,168.5C 295.217,165.891 292.717,163.224 290.5,160.5 Z"/></g>
<g><path style="opacity:1" fill="#f0f0f0" d="M 284.5,160.5 C 285.5,160.5 286.5,160.5 287.5,160.5C 287.906,169.969 286.073,178.969 282,187.5C 274.5,197.176 265.666,205.176 255.5,211.5C 254.5,211.167 253.5,210.833 252.5,210.5C 261.149,203.018 269.649,195.352 278,187.5C 282.207,179.007 284.373,170.007 284.5,160.5 Z"/></g>
<g><path style="opacity:1" fill="#dfdfdf" d="M 277.5,159.5 C 278.833,159.5 280.167,159.5 281.5,159.5C 282.936,165.962 282.436,172.295 280,178.5C 279.851,172.047 279.018,165.714 277.5,159.5 Z"/></g>
<g><path style="opacity:1" fill="#f4f4f4" d="M 270.5,160.5 C 271.777,161.694 272.444,163.36 272.5,165.5C 273.491,173.485 273.657,181.485 273,189.5C 272.333,190.167 271.667,190.833 271,191.5C 270.795,181.966 270.295,172.466 269.5,163C 269.743,162.098 270.077,161.265 270.5,160.5 Z"/></g>
<g><path style="opacity:1" fill="#d6d6d6" d="M 293.5,156.5 C 295.296,157.793 296.963,159.293 298.5,161C 295.667,160.901 294.001,159.401 293.5,156.5 Z"/></g>
<g><path style="opacity:1" fill="#d0d0d0" d="M 271.5,155.5 C 277.842,155.334 284.175,155.5 290.5,156C 291.167,156.667 291.833,157.333 292.5,158C 275.506,156.435 259.339,159.268 244,166.5C 243.493,165.004 243.993,163.837 245.5,163C 254.105,159.853 262.772,157.353 271.5,155.5 Z"/></g>
<g><path style="opacity:1" fill="#e5e5e5" d="M 264.5,152.5 C 272.672,152.034 280.672,152.534 288.5,154C 274.917,152.983 261.917,155.15 249.5,160.5C 249.167,160.333 248.833,160.167 248.5,160C 249.5,159 250.5,158 251.5,157C 255.98,155.564 260.313,154.064 264.5,152.5 Z"/></g>
<g><path style="opacity:1" fill="#e7e7e7" d="M 241.5,146.5 C 243.355,146.272 244.188,146.939 244,148.5C 228.97,161.886 219.637,178.552 216,198.5C 210.199,219.532 210.365,240.532 216.5,261.5C 216.167,262.5 215.5,263.167 214.5,263.5C 204.819,229.031 208.653,196.031 226,164.5C 230.938,158.282 236.105,152.282 241.5,146.5 Z"/></g>
<g><path style="opacity:1" fill="#e0e0e0" d="M 266.5,146.5 C 270.182,146.335 273.848,146.501 277.5,147C 279.618,147.26 281.284,148.26 282.5,150C 274.797,150.476 267.131,150.809 259.5,151C 262.239,149.974 264.572,148.474 266.5,146.5 Z"/></g>
<g><path style="opacity:1" fill="#e7e7e7" d="M 258.5,145.5 C 260.288,145.215 261.955,145.548 263.5,146.5C 247.193,155.985 235.693,169.652 229,187.5C 221.303,207.333 216.969,227.666 216,248.5C 213.839,215.141 222.839,185.141 243,158.5C 248.065,153.926 253.231,149.593 258.5,145.5 Z"/></g>
<g><path style="opacity:1" fill="#e9e9e9" d="M 250.5,144.5 C 252.527,144.338 254.527,144.505 256.5,145C 241.217,155.717 230.384,169.883 224,187.5C 219.577,199.526 216.243,211.859 214,224.5C 214.779,201.575 221.446,180.575 234,161.5C 239.703,155.965 245.203,150.298 250.5,144.5 Z"/></g>
<g><path style="opacity:1" fill="#ececec" d="M 304.5,206.5 C 305.978,206.238 307.311,206.571 308.5,207.5C 306.258,208.692 303.925,209.692 301.5,210.5C 300.479,209.998 300.312,209.332 301,208.5C 302.302,207.915 303.469,207.249 304.5,206.5 Z"/></g>
<g><path style="opacity:1" fill="#d5d5d5" d="M 265.5,206.5 C 266.705,208.41 266.038,209.743 263.5,210.5C 263.167,210.167 262.833,209.833 262.5,209.5C 263.77,208.712 264.77,207.712 265.5,206.5 Z"/></g>
<g><path style="opacity:1" fill="#e9e9e9" d="M 188.5,208.5 C 193.432,209.984 198.432,211.317 203.5,212.5C 203.113,213.72 202.28,214.387 201,214.5C 196.944,214.02 193.111,212.853 189.5,211C 188.748,210.329 188.414,209.496 188.5,208.5 Z"/></g>
<g><path style="opacity:1" fill="#616161" d="M 205.5,207.5 C 205.328,208.492 205.662,209.158 206.5,209.5C 206.162,211.854 205.662,214.187 205,216.5C 204.195,213.304 204.362,210.304 205.5,207.5 Z"/></g>
<g><path style="opacity:1" fill="#efefef" d="M 302.5,211.5 C 304.199,211.34 305.866,211.506 307.5,212C 304.992,213.45 302.325,214.617 299.5,215.5C 298.479,214.998 298.312,214.332 299,213.5C 300.302,212.915 301.469,212.249 302.5,211.5 Z"/></g>
<g><path style="opacity:1" fill="#f1f1f1" d="M 279.5,208.5 C 282.718,208.651 283.051,209.484 280.5,211C 261.376,215.421 242.043,216.587 222.5,214.5C 233.485,213.668 244.485,213.168 255.5,213C 263.763,212.183 271.763,210.683 279.5,208.5 Z"/></g>
<g><path style="opacity:1" fill="#e3e3e3" d="M 189.5,214.5 C 189.56,213.957 189.893,213.624 190.5,213.5C 194.661,215.185 198.994,215.852 203.5,215.5C 203.5,216.5 203.5,217.5 203.5,218.5C 198.417,218.398 193.75,217.065 189.5,214.5 Z"/></g>
<g><path style="opacity:1" fill="#1f1f1f" d="M 280.5,214.5 C 280.833,214.5 281.167,214.5 281.5,214.5C 276.605,222.73 270.605,230.063 263.5,236.5C 263.5,235.833 263.5,235.167 263.5,234.5C 266.297,233.192 266.131,232.525 263,232.5C 260.538,233.159 258.038,233.493 255.5,233.5C 255.5,232.833 255.167,232.5 254.5,232.5C 259.034,231.51 263.701,230.51 268.5,229.5C 268.977,228.522 269.643,227.689 270.5,227C 255.493,229.466 240.493,229.966 225.5,228.5C 228.385,228.806 231.052,228.473 233.5,227.5C 245.573,227.831 257.573,227.164 269.5,225.5C 271.103,225.688 272.437,225.188 273.5,224C 271.613,223.22 269.946,223.387 268.5,224.5C 256.856,225.361 245.19,225.695 233.5,225.5C 240.167,224.833 246.833,224.167 253.5,223.5C 260.928,223.488 268.261,222.655 275.5,221C 276.711,220.107 276.711,219.274 275.5,218.5C 272.516,219.275 269.516,219.941 266.5,220.5C 264.735,219.539 262.735,219.205 260.5,219.5C 267.295,218.476 273.962,216.809 280.5,214.5 Z"/></g>
<g><path style="opacity:1" fill="#e4e4e4" d="M 303.5,215.5 C 305.048,215.821 305.715,216.821 305.5,218.5C 302.507,219.135 299.507,219.301 296.5,219C 298.858,217.724 301.192,216.558 303.5,215.5 Z"/></g>
<g><path style="opacity:1" fill="#eeeeee" d="M 280.5,214.5 C 273.962,216.809 267.295,218.476 260.5,219.5C 247.505,220.712 234.505,220.712 221.5,219.5C 240.706,219.403 259.706,217.403 278.5,213.5C 279.416,213.543 280.083,213.876 280.5,214.5 Z"/></g>
<g><path style="opacity:1" fill="#c9c9c9" d="M 193.5,219.5 C 196.584,219.271 199.918,219.271 203.5,219.5C 203.5,220.5 203.5,221.5 203.5,222.5C 199.908,222.302 196.574,221.302 193.5,219.5 Z"/></g>
<g><path style="opacity:1" fill="#d3d3d3" d="M 253.5,223.5 C 246.5,223.5 239.5,223.5 232.5,223.5C 230.143,223.663 227.81,223.497 225.5,223C 239.218,222.819 252.885,221.986 266.5,220.5C 269.516,219.941 272.516,219.275 275.5,218.5C 276.711,219.274 276.711,220.107 275.5,221C 268.261,222.655 260.928,223.488 253.5,223.5 Z"/></g>
<g><path style="opacity:1" fill="#dedede" d="M 191.5,220.5 C 195.4,223.037 199.734,224.037 204.5,223.5C 204.5,224.5 204.5,225.5 204.5,226.5C 199.167,227.259 194.501,225.926 190.5,222.5C 190.863,221.817 191.196,221.15 191.5,220.5 Z"/></g>
<g><path style="opacity:1" fill="#e4e4e4" d="M 299.5,220.5 C 301.288,220.215 302.955,220.548 304.5,221.5C 304.291,222.086 303.957,222.586 303.5,223C 300.497,224.31 297.497,224.476 294.5,223.5C 295.947,222.065 297.614,221.065 299.5,220.5 Z"/></g>
<g><path style="opacity:1" fill="#8a8a8a" d="M 232.5,223.5 C 239.5,223.5 246.5,223.5 253.5,223.5C 246.833,224.167 240.167,224.833 233.5,225.5C 230.941,225.802 228.607,225.468 226.5,224.5C 228.735,224.795 230.735,224.461 232.5,223.5 Z"/></g>
<g><path style="opacity:1" fill="#7e7e7e" d="M 268.5,224.5 C 269.946,223.387 271.613,223.22 273.5,224C 272.437,225.188 271.103,225.688 269.5,225.5C 269.5,224.833 269.167,224.5 268.5,224.5 Z"/></g>
<g><path style="opacity:1" fill="#dedede" d="M 226.5,224.5 C 228.607,225.468 230.941,225.802 233.5,225.5C 245.19,225.695 256.856,225.361 268.5,224.5C 269.167,224.5 269.5,224.833 269.5,225.5C 257.573,227.164 245.573,227.831 233.5,227.5C 228.988,227.851 224.655,227.185 220.5,225.5C 222.396,224.534 224.396,224.201 226.5,224.5 Z"/></g>
<g><path style="opacity:1" fill="#cdcdcd" d="M 280.5,224.5 C 281.653,225.313 281.653,226.313 280.5,227.5C 279.635,228.583 278.635,228.749 277.5,228C 278.71,226.961 279.71,225.794 280.5,224.5 Z"/></g>
<g><path style="opacity:1" fill="#ebebeb" d="M 254.5,232.5 C 245.161,232.666 235.827,232.5 226.5,232C 223.957,231.86 221.623,231.194 219.5,230C 221.25,228.681 223.25,228.181 225.5,228.5C 240.493,229.966 255.493,229.466 270.5,227C 269.643,227.689 268.977,228.522 268.5,229.5C 263.701,230.51 259.034,231.51 254.5,232.5 Z"/></g>
<g><path style="opacity:1" fill="#dadada" d="M 298.5,225.5 C 299.675,225.281 300.675,225.614 301.5,226.5C 298.763,227.812 295.929,228.812 293,229.5C 292.383,228.551 292.549,227.718 293.5,227C 295.382,226.802 297.048,226.302 298.5,225.5 Z"/></g>
<g><path style="opacity:1" fill="#e1e1e1" d="M 191.5,225.5 C 195.481,227.881 199.814,228.881 204.5,228.5C 204.5,229.5 204.5,230.5 204.5,231.5C 199.962,231.092 195.628,230.092 191.5,228.5C 191.5,227.5 191.5,226.5 191.5,225.5 Z"/></g>
<g><path style="opacity:1" fill="#f0f0f0" d="M 192.5,230.5 C 197.142,231.828 201.809,233.161 206.5,234.5C 202.45,235.773 198.45,235.606 194.5,234C 193.177,233.184 192.511,232.017 192.5,230.5 Z"/></g>
<g><path style="opacity:1" fill="#ededed" d="M 295.5,230.5 C 297.847,232.03 298.014,234.03 296,236.5C 295.505,234.527 295.338,232.527 295.5,230.5 Z"/></g>
<g><path style="opacity:1" fill="#d5d5d5" d="M 290.5,231.5 C 292.89,231.685 293.89,233.018 293.5,235.5C 293.353,238.11 292.519,240.444 291,242.5C 290.501,238.848 290.335,235.182 290.5,231.5 Z"/></g>
<g><path style="opacity:1" fill="#efefef" d="M 255.5,233.5 C 258.038,233.493 260.538,233.159 263,232.5C 266.131,232.525 266.297,233.192 263.5,234.5C 249.545,235.632 235.545,235.798 221.5,235C 220.376,234.751 219.376,234.251 218.5,233.5C 218.833,233.167 219.167,232.833 219.5,232.5C 231.445,234.564 243.445,234.897 255.5,233.5 Z"/></g>
<g><path style="opacity:1" fill="#ededed" d="M 275.5,230.5 C 276.552,230.351 277.552,230.517 278.5,231C 274.765,237.404 270.265,243.237 265,248.5C 264.167,247.667 263.333,246.833 262.5,246C 267.044,240.96 271.378,235.794 275.5,230.5 Z"/></g>
<g><path style="opacity:1" fill="#e5e5e5" d="M 193.5,236.5 C 193.56,235.957 193.893,235.624 194.5,235.5C 198.711,236.902 203.045,237.736 207.5,238C 207.957,238.414 208.291,238.914 208.5,239.5C 204.154,240.585 199.821,240.418 195.5,239C 194.934,238.005 194.267,237.172 193.5,236.5 Z"/></g>
<g><path style="opacity:1" fill="#dedede" d="M 318.5,199.5 C 319.147,200.274 319.48,201.274 319.5,202.5C 317.209,214.206 313.042,225.206 307,235.5C 299.414,245.757 291.081,255.423 282,264.5C 285.378,258.089 290.044,252.422 296,247.5C 307.805,233.615 315.305,217.615 318.5,199.5 Z"/></g>
<g><path style="opacity:1" fill="#f0f0f0" d="M 237.5,238.5 C 238.251,237.427 239.251,237.26 240.5,238C 239.648,239.728 238.648,239.895 237.5,238.5 Z"/></g>
<g><path style="opacity:1" fill="#d3d3d3" d="M 243.5,237.5 C 247.193,238.247 247.193,239.58 243.5,241.5C 242.374,240.192 242.374,238.858 243.5,237.5 Z"/></g>
<g><path style="opacity:1" fill="#e1e1e1" d="M 249.5,237.5 C 250.552,237.351 251.552,237.517 252.5,238C 251.023,240.445 249.19,242.612 247,244.5C 246.5,244 246,243.5 245.5,243C 246.965,241.226 248.298,239.392 249.5,237.5 Z"/></g>
<g><path style="opacity:1" fill="#dadada" d="M 256.5,236.5 C 257.873,236.343 259.207,236.51 260.5,237C 257.703,240.799 254.536,244.299 251,247.5C 250.308,246.975 249.808,246.308 249.5,245.5C 251.6,242.289 253.934,239.289 256.5,236.5 Z"/></g>
<g><path style="opacity:1" fill="#909090" d="M 287.5,235.5 C 289.465,235.948 289.798,236.948 288.5,238.5C 287.614,237.675 287.281,236.675 287.5,235.5 Z"/></g>
<g><path style="opacity:1" fill="#e8e8e8" d="M 218.5,236.5 C 230.391,236.573 240.724,240.573 249.5,248.5C 248.635,249.583 247.635,249.749 246.5,249C 243.341,245.918 239.675,243.584 235.5,242C 229.486,240.459 223.82,238.626 218.5,236.5 Z"/></g>
<g><path style="opacity:1" fill="#c4c4c4" d="M 284.5,240.5 C 287.838,240.849 288.838,242.516 287.5,245.5C 286.048,244.06 285.048,242.394 284.5,240.5 Z"/></g>
<g><path style="opacity:1" fill="#ebebeb" d="M 197.5,242.5 C 201.226,242.177 204.893,242.511 208.5,243.5C 208.291,244.086 207.957,244.586 207.5,245C 204.5,245.667 201.5,245.667 198.5,245C 197.748,244.329 197.414,243.496 197.5,242.5 Z"/></g>
<g><path style="opacity:1" fill="#d5d5d5" d="M 307.5,242.5 C 309.76,243.238 309.927,244.238 308,245.5C 306.272,244.648 306.105,243.648 307.5,242.5 Z"/></g>
<g><path style="opacity:1" fill="#e8e8e8" d="M 218.5,239.5 C 229.365,240.223 238.698,244.223 246.5,251.5C 245.635,252.583 244.635,252.749 243.5,252C 236.716,245.955 228.716,242.622 219.5,242C 218.748,241.329 218.414,240.496 218.5,239.5 Z"/></g>
<g><path style="opacity:1" fill="#d4d4d4" d="M 282.5,244.5 C 285.128,245.625 285.961,247.625 285,250.5C 283.441,248.783 282.608,246.783 282.5,244.5 Z"/></g>
<g><path style="opacity:1" fill="#dfdfdf" d="M 218.5,243.5 C 228.006,244.386 236.34,247.886 243.5,254C 242.975,254.692 242.308,255.192 241.5,255.5C 235.174,250.053 227.84,246.72 219.5,245.5C 218.702,245.043 218.369,244.376 218.5,243.5 Z"/></g>
<g><path style="opacity:1" fill="#cdcdcd" d="M 304.5,246.5 C 305.5,246.5 306.5,246.5 307.5,246.5C 306.754,250.31 305.754,250.31 304.5,246.5 Z"/></g>
<g><path style="opacity:1" fill="#dbdbdb" d="M 207.5,246.5 C 209.028,246.517 209.528,247.184 209,248.5C 206.912,249.308 204.912,250.308 203,251.5C 201.978,250.646 201.145,249.646 200.5,248.5C 202.969,247.832 205.302,247.165 207.5,246.5 Z"/></g>
<g><path style="opacity:1" fill="#e2e2e2" d="M 259.5,246.5 C 263.019,247.309 264.352,249.309 263.5,252.5C 261.722,250.736 260.389,248.736 259.5,246.5 Z"/></g>
<g><path style="opacity:1" fill="#e2e2e2" d="M 316.5,217.5 C 317.292,223.027 316.126,228.36 313,233.5C 306.585,242.586 299.418,251.086 291.5,259C 290.833,259.667 290.167,259.667 289.5,259C 296.928,251.296 303.762,243.129 310,234.5C 312.869,229.054 315.036,223.387 316.5,217.5 Z"/></g>
<g><path style="opacity:1" fill="#d4d4d4" d="M 280.5,248.5 C 283.358,249.535 283.858,251.202 282,253.5C 280.991,251.975 280.491,250.308 280.5,248.5 Z"/></g>
<g><path style="opacity:1" fill="#d5d5d5" d="M 216.5,249.5 C 219.012,250.216 219.012,251.216 216.5,252.5C 215.438,251.575 215.438,250.575 216.5,249.5 Z"/></g>
<g><path style="opacity:1" fill="#cacaca" d="M 256.5,249.5 C 259.241,250.439 261.241,252.273 262.5,255C 262,255.5 261.5,256 261,256.5C 258.418,254.772 256.918,252.439 256.5,249.5 Z"/></g>
<g><path style="opacity:1" fill="#cfcfcf" d="M 301.5,249.5 C 303.332,250.14 303.665,251.14 302.5,252.5C 300.481,251.867 300.147,250.867 301.5,249.5 Z"/></g>
<g><path style="opacity:1" fill="#ebebeb" d="M 207.5,250.5 C 209.465,250.948 209.798,251.948 208.5,253.5C 206.588,255.156 204.588,255.489 202.5,254.5C 204.015,252.918 205.681,251.584 207.5,250.5 Z"/></g>
<g><path style="opacity:1" fill="#d0d0d0" d="M 220.5,251.5 C 224.102,251.678 224.102,252.678 220.5,254.5C 219.438,253.575 219.438,252.575 220.5,251.5 Z"/></g>
<g><path style="opacity:1" fill="#d9d9d9" d="M 277.5,251.5 C 279.3,252.895 279.634,254.561 278.5,256.5C 276.576,255.035 276.243,253.368 277.5,251.5 Z"/></g>
<g><path style="opacity:1" fill="#e2e2e2" d="M 219.5,247.5 C 227.339,248.253 234.005,251.42 239.5,257C 239,257.5 238.5,258 238,258.5C 233.205,253.935 227.538,250.935 221,249.5C 219.97,249.164 219.47,248.497 219.5,247.5 Z"/></g>
<g><path style="opacity:1" fill="#c5c5c5" d="M 253.5,252.5 C 257.314,253.602 258.98,255.935 258.5,259.5C 255.61,257.957 253.943,255.624 253.5,252.5 Z"/></g>
<g><path style="opacity:1" fill="#e5e5e5" d="M 298.5,253.5 C 299.376,253.369 300.043,253.702 300.5,254.5C 298.192,255.873 297.525,255.54 298.5,253.5 Z"/></g>
<g><path style="opacity:1" fill="#f2f2f2" d="M 274.5,256.5 C 276.332,257.14 276.665,258.14 275.5,259.5C 273.481,258.867 273.147,257.867 274.5,256.5 Z"/></g>
<g><path style="opacity:1" fill="#cbcbcb" d="M 250.5,255.5 C 252.463,256.96 254.296,258.627 256,260.5C 256.563,261.725 256.23,262.725 255,263.5C 253.285,261.241 251.452,259.074 249.5,257C 250.056,256.617 250.389,256.117 250.5,255.5 Z"/></g>
<g><path style="opacity:1" fill="#eaeaea" d="M 271.5,260.5 C 273.337,260.639 273.67,261.306 272.5,262.5C 271.702,262.043 271.369,261.376 271.5,260.5 Z"/></g>
<g><path style="opacity:1" fill="#e0e0e0" d="M 243.5,261.5 C 245.75,263.244 247.917,265.244 250,267.5C 250.749,268.635 250.583,269.635 249.5,270.5C 247.35,267.849 245.017,265.349 242.5,263C 243.056,262.617 243.389,262.117 243.5,261.5 Z"/></g>
<g><path style="opacity:1" fill="#e6e6e6" d="M 247.5,258.5 C 250.196,260.199 252.196,262.533 253.5,265.5C 253.192,266.308 252.692,266.975 252,267.5C 250.533,264.734 248.7,262.234 246.5,260C 247.056,259.617 247.389,259.117 247.5,258.5 Z"/></g>
<g><path style="opacity:1" fill="#d0d0d0" d="M 269.5,262.5 C 271.76,263.238 271.927,264.238 270,265.5C 268.272,264.648 268.105,263.648 269.5,262.5 Z"/></g>
<g><path style="opacity:1" fill="#efefef" d="M 239.5,264.5 C 243.323,265.609 244.99,267.943 244.5,271.5C 242.395,269.408 240.728,267.075 239.5,264.5 Z"/></g>
<g><path style="opacity:1" fill="#e6e6e6" d="M 235.5,266.5 C 238.719,267.021 239.719,268.688 238.5,271.5C 237.048,270.06 236.048,268.394 235.5,266.5 Z"/></g>
<g><path style="opacity:1" fill="#d6d6d6" d="M 229.5,269.5 C 231.517,268.126 233.517,268.293 235.5,270C 233.512,270.18 231.512,270.014 229.5,269.5 Z"/></g>
<g><path style="opacity:1" fill="#ebebeb" d="M 265.5,267.5 C 267.728,268.322 268.395,269.655 267.5,271.5C 265.889,270.68 265.222,269.346 265.5,267.5 Z"/></g>
<g><path style="opacity:1" fill="#eeeeee" d="M 186.5,267.5 C 182.234,264.355 177.901,261.188 173.5,258C 169.269,256.733 166.602,258.233 165.5,262.5C 168.385,269.918 170.219,277.585 171,285.5C 173.326,291.487 176.826,296.654 181.5,301C 182.667,301.167 183.833,301.333 185,301.5C 192.755,298.804 200.589,296.304 208.5,294C 243.466,298.099 276.8,292.433 308.5,277C 310.259,276.202 311.926,276.369 313.5,277.5C 298.072,286.702 281.406,292.869 263.5,296C 246.71,299.657 229.877,300.157 213,297.5C 210.967,297.506 209.134,297.839 207.5,298.5C 200.434,300.355 193.434,302.521 186.5,305C 184.5,305.667 182.5,305.667 180.5,305C 172.056,296.61 167.556,286.443 167,274.5C 165.864,270.757 164.53,267.09 163,263.5C 162.333,261.833 162.333,260.167 163,258.5C 167.444,252.526 172.61,252.026 178.5,257C 185.541,263.934 194.041,267.434 204,267.5C 212.753,266.027 221.586,264.861 230.5,264C 232.949,263.275 235.283,262.275 237.5,261C 246.968,253.699 255.635,245.532 263.5,236.5C 270.605,230.063 276.605,222.73 281.5,214.5C 286.496,206.513 290.996,198.179 295,189.5C 294.957,193.673 293.957,197.673 292,201.5C 287.838,209.828 283.171,217.828 278,225.5C 265.43,240.072 251.597,253.238 236.5,265C 225.041,266.556 213.708,268.722 202.5,271.5C 196.79,271.442 191.456,270.108 186.5,267.5 Z"/></g>
<g><path style="opacity:1" fill="#dedede" d="M 229.5,255.5 C 230.675,255.281 231.675,255.614 232.5,256.5C 228.863,260.361 224.529,262.527 219.5,263C 223.3,261.021 226.634,258.521 229.5,255.5 Z"/></g>
<g><path style="opacity:1" fill="#dfdfdf" d="M 233.5,258.5 C 234.552,258.351 235.552,258.517 236.5,259C 234.431,260.874 232.098,261.874 229.5,262C 230.731,260.595 232.064,259.429 233.5,258.5 Z"/></g>
<g><path style="opacity:1" fill="#e5e5e5" d="M 209.5,254.5 C 210.928,256.377 210.428,257.711 208,258.5C 207.5,258.167 207,257.833 206.5,257.5C 207.77,256.712 208.77,255.712 209.5,254.5 Z"/></g>
<g><path style="opacity:1" fill="#dfdfdf" d="M 224.5,253.5 C 225.873,253.343 227.207,253.51 228.5,254C 225.337,256.416 222.004,258.582 218.5,260.5C 217.479,259.998 217.312,259.332 218,258.5C 220.326,256.934 222.492,255.268 224.5,253.5 Z"/></g>
<g><path style="opacity:1" fill="#c8c8c8" d="M 217.5,253.5 C 218.776,254.386 218.776,255.386 217.5,256.5C 216.438,255.575 216.438,254.575 217.5,253.5 Z"/></g>
<g><path style="opacity:1" fill="#1f211e" d="M 186.5,267.5 C 185.833,267.5 185.5,267.833 185.5,268.5C 181.354,265.922 177.354,263.089 173.5,260C 170.138,258.707 168.138,259.707 167.5,263C 170.344,270.609 172.177,278.442 173,286.5C 175.471,292.8 179.638,297.133 185.5,299.5C 193.384,296.73 201.384,294.23 209.5,292C 244.47,296.099 277.804,290.432 309.5,275C 313.667,273.833 315.167,275.333 314,279.5C 300.716,287.152 286.549,292.652 271.5,296C 257.769,298.612 243.936,300.445 230,301.5C 222.918,300.144 215.751,299.477 208.5,299.5C 208.5,298.833 208.167,298.5 207.5,298.5C 209.134,297.839 210.967,297.506 213,297.5C 229.877,300.157 246.71,299.657 263.5,296C 281.406,292.869 298.072,286.702 313.5,277.5C 311.926,276.369 310.259,276.202 308.5,277C 276.8,292.433 243.466,298.099 208.5,294C 200.589,296.304 192.755,298.804 185,301.5C 183.833,301.333 182.667,301.167 181.5,301C 176.826,296.654 173.326,291.487 171,285.5C 170.219,277.585 168.385,269.918 165.5,262.5C 166.602,258.233 169.269,256.733 173.5,258C 177.901,261.188 182.234,264.355 186.5,267.5 Z"/></g>
<g><path style="opacity:1" fill="#10120f" d="M 132.5,326.5 C 134.167,326.5 135.833,326.5 137.5,326.5C 137.349,330.314 135.349,331.981 131.5,331.5C 131.366,329.708 131.699,328.042 132.5,326.5 Z"/></g>
<g><path style="opacity:1" fill="#121411" d="M 371.5,325.5 C 375.314,325.651 376.981,327.651 376.5,331.5C 372.092,331.938 370.425,329.938 371.5,325.5 Z"/></g>
<g><path style="opacity:1" fill="#21251e" d="M 171.5,338.5 C 170.209,337.458 170.209,336.292 171.5,335C 178.294,330.834 185.627,329.501 193.5,331C 196.079,332.612 196.079,334.112 193.5,335.5C 192.289,334.726 192.289,333.893 193.5,333C 186.146,330.914 179.146,331.914 172.5,336C 171.748,336.671 171.414,337.504 171.5,338.5 Z"/></g>
<g><path style="opacity:1" fill="#252a22" d="M 301.5,331.5 C 302.88,331.962 303.547,332.962 303.5,334.5C 300.187,346.411 297.521,358.411 295.5,370.5C 296.745,386.228 297.578,385.895 298,369.5C 298.744,376.503 299.078,383.503 299,390.5C 295.195,383.367 293.195,375.7 293,367.5C 291.333,370.167 289.667,372.833 288,375.5C 286.506,376.747 285.006,376.747 283.5,375.5C 282.965,373.339 282.132,371.339 281,369.5C 280.329,374.2 279.496,378.866 278.5,383.5C 277.914,383.291 277.414,382.957 277,382.5C 276.147,378.531 275.481,374.531 275,370.5C 271.95,374.095 268.784,377.595 265.5,381C 264.167,381.667 262.833,381.667 261.5,381C 260.008,376.469 260.841,372.303 264,368.5C 264.654,367.304 265.154,367.304 265.5,368.5C 262.862,372.135 262.029,376.135 263,380.5C 269.528,375.313 274.528,368.98 278,361.5C 277.544,367.13 277.544,372.796 278,378.5C 278.421,374.128 279.088,369.795 280,365.5C 280.196,363.714 281.029,362.381 282.5,361.5C 283.327,365.459 283.827,369.459 284,373.5C 284.605,375.481 285.605,375.815 287,374.5C 288.833,371.5 290.667,368.5 292.5,365.5C 293.776,358.188 294.942,350.854 296,343.5C 297.043,339.085 298.876,335.085 301.5,331.5 Z"/></g>
<g><path style="opacity:1" fill="#a0ba93" d="M 226.5,345.5 C 225.094,345.973 224.427,346.973 224.5,348.5C 223.143,349.685 221.643,350.685 220,351.5C 218.97,351.164 218.47,350.497 218.5,349.5C 220.262,348.738 221.262,347.404 221.5,345.5C 223.148,344.19 224.814,342.857 226.5,341.5C 227.292,342.7 227.292,344.033 226.5,345.5 Z"/></g>
<g><path style="opacity:1" fill="#282e25" d="M 226.5,345.5 C 227.292,344.033 227.292,342.7 226.5,341.5C 224.814,342.857 223.148,344.19 221.5,345.5C 222.744,341.588 225.411,339.588 229.5,339.5C 229.539,342.089 228.539,344.089 226.5,345.5 Z"/></g>
<g><path style="opacity:1" fill="#1f231d" d="M 269.5,334.5 C 270.376,334.369 271.043,334.702 271.5,335.5C 257.289,353.659 250.789,374.326 252,397.5C 256.733,393.28 262.233,391.113 268.5,391C 264.203,392.665 259.87,394.332 255.5,396C 253.47,397.896 251.803,400.063 250.5,402.5C 248.544,384.65 251.544,367.65 259.5,351.5C 255.349,354.83 251.349,358.996 247.5,364C 246.668,364.688 246.002,364.521 245.5,363.5C 254.248,354.422 262.248,344.755 269.5,334.5 Z"/></g>
<g><path style="opacity:1" fill="#abc79d" d="M 300.5,334.5 C 301.124,334.917 301.457,335.584 301.5,336.5C 299.823,343.543 297.989,350.543 296,357.5C 296.066,349.568 297.566,341.901 300.5,334.5 Z"/></g>
<g><path style="opacity:1" fill="#1c201a" d="M 221.5,345.5 C 221.262,347.404 220.262,348.738 218.5,349.5C 218.738,347.596 219.738,346.262 221.5,345.5 Z"/></g>
<g><path style="opacity:1" fill="#292f26" d="M 226.5,345.5 C 226.573,347.027 225.906,348.027 224.5,348.5C 224.427,346.973 225.094,345.973 226.5,345.5 Z"/></g>
<g><path style="opacity:1" fill="#282d25" d="M 335.5,355.5 C 334.081,356.451 332.415,356.784 330.5,356.5C 329.883,362.373 327.55,367.373 323.5,371.5C 322.522,371.023 321.689,370.357 321,369.5C 320.005,364.547 319.338,359.547 319,354.5C 318.434,356.723 317.6,358.723 316.5,360.5C 316.778,362.346 316.111,363.68 314.5,364.5C 313.353,362.235 313.186,359.902 314,357.5C 317.153,355.16 319.32,352.16 320.5,348.5C 321.331,354.807 321.831,361.141 322,367.5C 322.605,369.481 323.605,369.815 325,368.5C 328.288,358.927 331.955,349.593 336,340.5C 334.076,345.205 332.909,350.205 332.5,355.5C 333.5,355.5 334.5,355.5 335.5,355.5 Z"/></g>
<g><path style="opacity:1" fill="#4c5846" d="M 345.5,354.5 C 345.011,355.995 344.345,357.329 343.5,358.5C 343.5,357.5 343.5,356.5 343.5,355.5C 340.833,355.5 338.167,355.5 335.5,355.5C 336.624,354.191 338.124,353.525 340,353.5C 341.825,353.943 343.658,354.277 345.5,354.5 Z"/></g>
<g><path style="opacity:1" fill="#1c201a" d="M 343.5,358.5 C 344.345,357.329 345.011,355.995 345.5,354.5C 346.17,351.327 347.336,348.327 349,345.5C 349.654,344.304 350.154,344.304 350.5,345.5C 347.144,351.716 345.644,358.382 346,365.5C 344.989,366.337 343.822,366.67 342.5,366.5C 342.575,363.794 342.908,361.127 343.5,358.5 Z"/></g>
<g><path style="opacity:1" fill="#1d201b" d="M 171.5,338.5 C 177.46,339.631 183.46,340.631 189.5,341.5C 171.878,343.901 158.711,352.901 150,368.5C 149.333,370.833 149.333,373.167 150,375.5C 155.285,376.914 160.451,376.414 165.5,374C 177.311,368.287 188.311,361.954 198.5,355C 195.62,358.484 193.787,362.317 193,366.5C 202.158,352.764 203.991,353.264 198.5,368C 198.684,369.376 199.351,370.209 200.5,370.5C 199.791,371.404 198.791,371.737 197.5,371.5C 197.543,368.413 197.71,365.413 198,362.5C 194.921,366.324 192.088,370.324 189.5,374.5C 188.45,370.613 189.116,366.947 191.5,363.5C 191.167,363.167 190.833,362.833 190.5,362.5C 179.207,369.481 167.207,374.814 154.5,378.5C 152.407,378.514 150.574,377.848 149,376.5C 147.595,370.465 148.928,365.132 153,360.5C 159.643,352.268 167.81,346.101 177.5,342C 175.121,341.284 173.121,340.117 171.5,338.5 Z"/></g>
<g><path style="opacity:1" fill="#96ae89" d="M 316.5,360.5 C 315.778,360.918 315.278,361.584 315,362.5C 314.365,360.365 314.699,358.365 316,356.5C 316.49,357.793 316.657,359.127 316.5,360.5 Z"/></g>
<g><path style="opacity:1" fill="#394235" d="M 267.5,360.5 C 268.334,362.263 267.834,363.93 266,365.5C 265.878,363.718 266.378,362.052 267.5,360.5 Z"/></g>
<g><path style="opacity:1" fill="#1e221c" d="M 218.5,349.5 C 218.47,350.497 218.97,351.164 220,351.5C 221.643,350.685 223.143,349.685 224.5,348.5C 224.489,350.017 223.823,351.184 222.5,352C 228.368,355.287 234.701,356.954 241.5,357C 234.929,357.993 228.596,357.16 222.5,354.5C 209.179,365.158 203.513,378.824 205.5,395.5C 202.978,385.584 204.311,375.918 209.5,366.5C 209.333,366.167 209.167,365.833 209,365.5C 206.643,368.091 203.809,369.758 200.5,370.5C 203.777,368.186 207.11,365.852 210.5,363.5C 211.42,359.985 213.087,356.985 215.5,354.5C 215.64,352.876 214.973,351.71 213.5,351C 206.472,348.866 199.472,348.033 192.5,348.5C 200.548,346.826 208.381,347.492 216,350.5C 216.902,350.257 217.735,349.923 218.5,349.5 Z"/></g>
<g><path style="opacity:1" fill="#a0b993" d="M 215.5,354.5 C 216.482,353.859 217.482,353.193 218.5,352.5C 218.438,355.6 216.938,358.267 214,360.5C 214.15,358.494 214.65,356.494 215.5,354.5 Z"/></g>
<g><path style="opacity:1" fill="#1e221c" d="M 223.5,361.5 C 223.489,363.017 222.823,364.184 221.5,365C 221.833,365.167 222.167,365.333 222.5,365.5C 225.289,363.702 228.289,363.202 231.5,364C 226.917,367.912 223.083,372.412 220,377.5C 218.096,380.923 217.263,384.59 217.5,388.5C 219.575,388.302 221.575,388.135 223.5,388C 221.611,390.194 219.444,390.694 217,389.5C 216.333,386.5 216.333,383.5 217,380.5C 219.726,375.107 223.226,370.274 227.5,366C 224.089,366.186 220.756,367.019 217.5,368.5C 216,368.547 215,367.881 214.5,366.5C 216.712,361.613 220.378,358.613 225.5,357.5C 225.771,359.38 225.104,360.713 223.5,361.5 Z"/></g>
<g><path style="opacity:1" fill="#a4bf97" d="M 223.5,361.5 C 221.203,363.294 219.037,365.294 217,367.5C 217.088,364.358 218.588,361.858 221.5,360C 222.816,359.472 223.483,359.972 223.5,361.5 Z"/></g>
<g><path style="opacity:1" fill="#30372d" d="M 311.5,360.5 C 312.043,360.56 312.376,360.893 312.5,361.5C 310.511,366.14 307.511,369.807 303.5,372.5C 302.833,372.167 302.167,371.833 301.5,371.5C 300.787,369.224 300.287,366.891 300,364.5C 299.667,365.833 299.333,367.167 299,368.5C 298.333,366.5 298.333,364.5 299,362.5C 300,361.167 301,361.167 302,362.5C 302.179,365.553 302.679,368.553 303.5,371.5C 306.898,368.373 309.565,364.707 311.5,360.5 Z"/></g>
<g><path style="opacity:1" fill="#242921" d="M 232.5,376.5 C 230.874,372.177 231.874,368.344 235.5,365C 240.499,364.448 240.666,364.948 236,366.5C 236.257,368.975 237.257,368.975 239,366.5C 238.971,369.695 237.471,370.695 234.5,369.5C 233.056,371.608 232.39,373.941 232.5,376.5 Z"/></g>
<g><path style="opacity:1" fill="#272d24" d="M 232.5,376.5 C 234.881,377.83 237.214,377.664 239.5,376C 242.021,373.78 244.188,371.28 246,368.5C 244.519,373.821 241.019,377.487 235.5,379.5C 233.787,379.121 232.787,378.121 232.5,376.5 Z"/></g>
</svg>
