<?xml version="1.0" encoding="UTF-8"?>
<!DOCTYPE svg PUBLIC "-//W3C//DTD SVG 1.1//EN" "http://www.w3.org/Graphics/SVG/1.1/DTD/svg11.dtd">
<svg xmlns="http://www.w3.org/2000/svg" version="1.1" width="512px" height="512px" style="shape-rendering:geometricPrecision; text-rendering:geometricPrecision; image-rendering:optimizeQuality; fill-rule:evenodd; clip-rule:evenodd" xmlns:xlink="http://www.w3.org/1999/xlink">
<g><path style="opacity:0.945" fill="#000000" d="M 240.5,14.5 C 297.287,12.5214 338.121,36.8547 363,87.5C 380.604,134.878 373.271,177.878 341,216.5C 303.099,253.681 258.933,263.848 208.5,247C 159.817,225.674 134.151,188.341 131.5,135C 134.569,78.2887 162.569,39.9553 215.5,20C 223.869,17.6955 232.202,15.8622 240.5,14.5 Z M 245.5,35.5 C 290.71,35.2712 323.21,55.2712 343,95.5C 359.277,140.122 350.111,178.622 315.5,211C 284.344,234.737 250.344,239.737 213.5,226C 180.027,210.24 160.193,184.073 154,147.5C 151.148,94.6759 174.315,58.8425 223.5,40C 230.882,38.0241 238.216,36.5241 245.5,35.5 Z"/></g>
<g><path style="opacity:0.954" fill="#000000" d="M 232.5,284.5 C 322.724,280.176 387.891,318.176 428,398.5C 440.83,427.971 446.163,458.637 444,490.5C 442.457,492.378 440.624,493.878 438.5,495C 313.444,495.994 188.444,495.661 63.5,494C 59.4549,490.405 57.7882,485.905 58.5,480.5C 61.1279,406.708 93.1279,349.875 154.5,310C 178.923,296.358 204.923,287.858 232.5,284.5 Z M 238.5,305.5 C 314.733,303.346 370.567,335.68 406,402.5C 416.546,425.35 422.379,449.35 423.5,474.5C 309.167,474.5 194.833,474.5 80.5,474.5C 85.1653,403.265 119.165,351.765 182.5,320C 200.564,312.318 219.231,307.485 238.5,305.5 Z"/></g>
</svg>
