<?xml version="1.0" encoding="UTF-8"?>
<svg xmlns="http://www.w3.org/2000/svg" xmlns:xlink="http://www.w3.org/1999/xlink" width="34px" height="34px" viewBox="0 0 34 34" version="1.1">
<g id="surface1">
<path style=" stroke:none;fill-rule:evenodd;fill:rgb(71.372549%,82.745098%,65.490196%);fill-opacity:1;" d="M -0.0351562 -0.0351562 C 11.300781 -0.0351562 22.632812 -0.0351562 33.964844 -0.0351562 C 33.964844 11.300781 33.964844 22.632812 33.964844 33.964844 C 22.632812 33.964844 11.300781 33.964844 -0.0351562 33.964844 C -0.0351562 22.632812 -0.0351562 11.300781 -0.0351562 -0.0351562 Z M -0.0351562 -0.0351562 "/>
<path style=" stroke:none;fill-rule:evenodd;fill:rgb(8.235294%,9.019608%,7.45098%);fill-opacity:1;" d="M 18.734375 12.683594 C 18.800781 12.683594 18.871094 12.683594 18.9375 12.683594 C 18.75 13.085938 18.488281 13.449219 18.15625 13.769531 C 17.132812 15.613281 16.660156 17.582031 16.726562 19.6875 C 16.902344 19.464844 17.121094 19.292969 17.375 19.175781 C 17.792969 19.058594 18.199219 18.976562 18.597656 18.9375 C 18.582031 18.976562 18.5625 19.011719 18.53125 19.039062 C 18.050781 19.09375 17.597656 19.226562 17.171875 19.449219 C 16.945312 19.617188 16.785156 19.832031 16.695312 20.09375 C 16.636719 20.152344 16.570312 20.175781 16.488281 20.160156 C 16.417969 18.171875 16.804688 16.28125 17.644531 14.484375 C 17.589844 14.4375 17.542969 14.449219 17.511719 14.519531 C 17.09375 15.015625 16.660156 15.503906 16.21875 15.980469 C 16.152344 16.019531 16.105469 15.996094 16.082031 15.910156 C 17.027344 14.886719 17.910156 13.8125 18.734375 12.683594 Z M 18.734375 12.683594 "/>
<path style=" stroke:none;fill-rule:evenodd;fill:rgb(10.196078%,11.372549%,9.411765%);fill-opacity:1;" d="M 11.933594 16.828125 C 12.007812 16.6875 12.054688 16.527344 12.070312 16.355469 C 12.125 15.972656 12.214844 15.597656 12.34375 15.230469 C 12.320312 15.175781 12.296875 15.117188 12.273438 15.0625 C 11.6875 14.984375 11.097656 14.972656 10.507812 15.027344 C 10.265625 15.058594 10.0625 15.160156 9.894531 15.335938 C 9.820312 15.273438 9.808594 15.207031 9.859375 15.128906 C 10.191406 14.96875 10.542969 14.867188 10.914062 14.824219 C 11.4375 14.804688 11.957031 14.804688 12.476562 14.824219 C 12.636719 14.46875 12.808594 14.117188 12.988281 13.769531 C 13.089844 13.585938 13.238281 13.449219 13.429688 13.363281 C 13.554688 13.5 13.589844 13.660156 13.53125 13.839844 C 13.402344 14.207031 13.257812 14.570312 13.089844 14.925781 C 13.148438 14.976562 13.21875 15.011719 13.292969 15.027344 C 13.859375 15.074219 14.425781 15.074219 14.992188 15.027344 C 15.1875 14.878906 15.277344 14.914062 15.265625 15.128906 C 15.125 15.144531 14.988281 15.175781 14.859375 15.230469 C 14.207031 15.242188 13.558594 15.253906 12.921875 15.265625 C 12.671875 15.765625 12.421875 16.261719 12.171875 16.761719 C 11.976562 17.753906 11.953125 18.75 12.105469 19.753906 C 12.195312 19.75 12.273438 19.785156 12.34375 19.855469 C 12.324219 19.988281 12.257812 20.035156 12.136719 19.992188 C 12.054688 19.929688 12 19.851562 11.96875 19.753906 C 11.753906 18.78125 11.742188 17.808594 11.933594 16.828125 Z M 11.933594 16.828125 "/>
<path style=" stroke:none;fill-rule:evenodd;fill:rgb(66.666667%,77.254902%,61.176471%);fill-opacity:1;" d="M 13.363281 13.566406 C 13.4375 13.640625 13.449219 13.730469 13.394531 13.839844 C 13.273438 14.183594 13.136719 14.523438 12.988281 14.859375 C 12.863281 14.945312 12.738281 14.945312 12.613281 14.859375 C 12.78125 14.375 13.03125 13.945312 13.363281 13.566406 Z M 13.363281 13.566406 "/>
<path style=" stroke:none;fill-rule:evenodd;fill:rgb(8.235294%,9.019608%,7.45098%);fill-opacity:1;" d="M 6.152344 19.890625 C 5.929688 19.644531 5.839844 19.351562 5.882812 19.007812 C 6.070312 17.585938 6.660156 16.363281 7.648438 15.335938 C 6.449219 15.4375 6.3125 15.085938 7.242188 14.28125 C 7.648438 13.90625 8.125 13.667969 8.671875 13.566406 C 8.761719 13.578125 8.851562 13.589844 8.941406 13.601562 C 9.042969 13.75 9.019531 13.875 8.875 13.972656 C 8.800781 13.882812 8.824219 13.800781 8.941406 13.734375 C 8.203125 13.792969 7.582031 14.097656 7.070312 14.652344 C 7.007812 14.785156 6.917969 14.898438 6.800781 14.992188 C 6.765625 15.058594 6.753906 15.125 6.765625 15.199219 C 6.992188 15.210938 7.21875 15.199219 7.445312 15.164062 C 7.910156 15.011719 8.363281 14.84375 8.804688 14.652344 C 8.816406 14.742188 8.792969 14.824219 8.738281 14.890625 C 8.480469 14.988281 8.230469 15.101562 7.988281 15.230469 C 6.835938 16.285156 6.179688 17.589844 6.019531 19.140625 C 6.03125 19.398438 6.078125 19.648438 6.152344 19.890625 Z M 6.152344 19.890625 "/>
<path style=" stroke:none;fill-rule:evenodd;fill:rgb(61.176471%,70.980392%,56.078431%);fill-opacity:1;" d="M 12.476562 15.128906 C 12.59375 15.117188 12.707031 15.128906 12.816406 15.164062 C 12.652344 15.550781 12.460938 15.925781 12.238281 16.285156 C 12.269531 15.894531 12.347656 15.507812 12.476562 15.128906 Z M 12.476562 15.128906 "/>
<path style=" stroke:none;fill-rule:evenodd;fill:rgb(8.235294%,9.019608%,7.843137%);fill-opacity:1;" d="M 23.152344 13.15625 C 23.222656 13.15625 23.289062 13.15625 23.359375 13.15625 C 23.367188 13.296875 23.359375 13.433594 23.324219 13.566406 C 22.695312 14.714844 22.082031 15.871094 21.488281 17.035156 C 21.398438 17.507812 21.375 17.984375 21.421875 18.460938 C 21.53125 17.691406 21.792969 16.976562 22.203125 16.320312 C 22.265625 16.289062 22.335938 16.277344 22.40625 16.285156 C 22.335938 16.671875 22.335938 17.058594 22.40625 17.441406 C 22.820312 17.199219 23.179688 16.894531 23.492188 16.523438 C 23.550781 16.476562 23.597656 16.488281 23.628906 16.558594 C 23.296875 17.015625 22.878906 17.355469 22.371094 17.578125 C 22.28125 17.5625 22.214844 17.515625 22.167969 17.441406 C 22.128906 17.246094 22.140625 17.054688 22.203125 16.863281 C 22.191406 16.808594 22.179688 16.75 22.167969 16.695312 C 21.71875 17.496094 21.503906 18.355469 21.523438 19.277344 C 21.453125 19.277344 21.386719 19.277344 21.316406 19.277344 C 21.171875 18.21875 21.25 17.175781 21.554688 16.148438 C 21.820312 15.347656 22.160156 14.578125 22.574219 13.839844 C 22.761719 13.597656 22.953125 13.371094 23.152344 13.15625 Z M 23.152344 13.15625 "/>
<path style=" stroke:none;fill-rule:evenodd;fill:rgb(65.098039%,75.294118%,59.607843%);fill-opacity:1;" d="M 23.152344 13.363281 C 23.191406 13.367188 23.214844 13.390625 23.222656 13.429688 C 22.777344 14.300781 22.3125 15.160156 21.828125 16.015625 C 22.050781 15.023438 22.492188 14.136719 23.152344 13.363281 Z M 23.152344 13.363281 "/>
<path style=" stroke:none;fill-rule:evenodd;fill:rgb(7.843137%,8.627451%,7.058824%);fill-opacity:1;" d="M 24.855469 15.539062 C 24.921875 15.539062 24.988281 15.539062 25.058594 15.539062 C 24.890625 15.917969 24.71875 16.304688 24.546875 16.695312 C 24.40625 17.089844 24.351562 17.496094 24.378906 17.917969 C 24.449219 17.929688 24.515625 17.917969 24.582031 17.882812 C 25 17.507812 25.363281 17.089844 25.671875 16.625 C 25.714844 16.535156 25.761719 16.535156 25.804688 16.625 C 25.511719 17.160156 25.125 17.625 24.648438 18.019531 C 24.53125 18.074219 24.417969 18.0625 24.308594 17.984375 C 24.234375 17.71875 24.222656 17.445312 24.277344 17.171875 C 24.378906 16.796875 24.492188 16.433594 24.617188 16.082031 C 24.402344 16.40625 24.164062 16.710938 23.902344 17 C 23.738281 17.0625 23.648438 17.003906 23.628906 16.828125 C 23.71875 16.367188 23.988281 16.105469 24.445312 16.046875 C 24.570312 15.867188 24.707031 15.695312 24.855469 15.539062 Z M 24.855469 15.539062 "/>
<path style=" stroke:none;fill-rule:evenodd;fill:rgb(9.803922%,10.980392%,9.019608%);fill-opacity:1;" d="M 18.597656 15.539062 C 18.65625 15.527344 18.703125 15.550781 18.734375 15.605469 C 18.273438 16.335938 18.226562 16.316406 18.597656 15.539062 Z M 18.597656 15.539062 "/>
<path style=" stroke:none;fill-rule:evenodd;fill:rgb(6.27451%,7.058824%,5.490196%);fill-opacity:1;" d="M 11.867188 16.558594 C 11.941406 16.617188 11.941406 16.683594 11.867188 16.761719 C 11.640625 17.125 11.347656 17.417969 10.980469 17.644531 C 10.867188 17.585938 10.789062 17.496094 10.742188 17.375 C 10.722656 17.101562 10.699219 16.828125 10.675781 16.558594 C 10.453125 17.113281 10.257812 17.683594 10.097656 18.257812 C 10.058594 18.242188 10.023438 18.222656 9.996094 18.191406 C 9.882812 17.351562 10.019531 16.558594 10.402344 15.808594 C 10.316406 16.210938 10.226562 16.621094 10.132812 17.035156 C 10.085938 17.238281 10.085938 17.441406 10.132812 17.644531 C 10.277344 17.015625 10.515625 16.425781 10.847656 15.878906 C 10.855469 16.371094 10.867188 16.871094 10.878906 17.375 C 10.902344 17.429688 10.933594 17.472656 10.980469 17.511719 C 11.328125 17.230469 11.621094 16.914062 11.867188 16.558594 Z M 11.867188 16.558594 "/>
<path style=" stroke:none;fill-rule:evenodd;fill:rgb(6.27451%,7.058824%,5.882353%);fill-opacity:1;" d="M 19.753906 15.808594 C 19.796875 15.839844 19.820312 15.882812 19.820312 15.945312 C 19.585938 16.488281 19.480469 17.054688 19.515625 17.644531 C 19.660156 17.015625 19.898438 16.425781 20.230469 15.878906 C 20.242188 16.371094 20.25 16.871094 20.265625 17.375 C 20.285156 17.429688 20.320312 17.472656 20.367188 17.511719 C 20.722656 17.234375 21.015625 16.90625 21.25 16.523438 C 21.304688 16.476562 21.351562 16.488281 21.386719 16.558594 C 21.140625 17.007812 20.800781 17.371094 20.367188 17.644531 C 20.25 17.585938 20.171875 17.496094 20.128906 17.375 C 20.105469 17.101562 20.082031 16.828125 20.058594 16.558594 C 19.835938 17.113281 19.644531 17.683594 19.480469 18.257812 C 19.257812 17.421875 19.347656 16.605469 19.753906 15.808594 Z M 19.753906 15.808594 "/>
<path style=" stroke:none;fill-rule:evenodd;fill:rgb(7.45098%,8.235294%,7.058824%);fill-opacity:1;" d="M 13.363281 15.46875 C 13.527344 15.441406 13.617188 15.511719 13.632812 15.675781 C 13.492188 15.914062 13.390625 16.164062 13.328125 16.421875 C 13.632812 16.21875 13.960938 16.082031 14.3125 16.015625 C 14.324219 16.085938 14.3125 16.152344 14.28125 16.21875 C 13.773438 16.792969 13.410156 17.449219 13.191406 18.191406 C 13.140625 18.441406 13.152344 18.691406 13.226562 18.9375 C 13.269531 18.960938 13.316406 18.984375 13.363281 19.007812 C 13.515625 18.945312 13.652344 18.855469 13.769531 18.734375 C 13.824219 18.859375 13.777344 18.960938 13.632812 19.039062 C 13.171875 19.191406 12.96875 19.007812 13.023438 18.496094 C 13.125 17.6875 13.445312 16.972656 13.972656 16.355469 C 13.953125 16.332031 13.929688 16.308594 13.90625 16.285156 C 13.535156 16.476562 13.160156 16.660156 12.785156 16.828125 C 12.660156 16.796875 12.578125 16.714844 12.546875 16.59375 C 12.730469 16.148438 13.003906 15.773438 13.363281 15.46875 Z M 13.363281 15.46875 "/>
<path style=" stroke:none;fill-rule:evenodd;fill:rgb(63.921569%,74.117647%,58.823529%);fill-opacity:1;" d="M 13.363281 15.675781 C 13.414062 15.664062 13.457031 15.675781 13.496094 15.707031 C 13.359375 15.972656 13.210938 16.234375 13.054688 16.488281 C 12.664062 16.78125 12.597656 16.710938 12.851562 16.285156 C 13.011719 16.070312 13.179688 15.867188 13.363281 15.675781 Z M 13.363281 15.675781 "/>
<path style=" stroke:none;fill-rule:evenodd;fill:rgb(7.058824%,7.843137%,6.666667%);fill-opacity:1;" d="M 2.480469 16.148438 C 2.765625 16.222656 2.867188 16.402344 2.789062 16.695312 C 2.546875 16.980469 2.355469 16.960938 2.210938 16.625 C 2.25 16.433594 2.339844 16.277344 2.480469 16.148438 Z M 2.480469 16.148438 "/>
<path style=" stroke:none;fill-rule:evenodd;fill:rgb(3.921569%,4.705882%,3.529412%);fill-opacity:1;" d="M 31.382812 16.148438 C 31.585938 16.1875 31.679688 16.3125 31.652344 16.523438 C 31.617188 16.902344 31.449219 16.984375 31.144531 16.761719 C 31.132812 16.707031 31.121094 16.648438 31.109375 16.59375 C 31.15625 16.417969 31.25 16.273438 31.382812 16.148438 Z M 31.382812 16.148438 "/>
<path style=" stroke:none;fill-rule:evenodd;fill:rgb(60.392157%,70.196078%,55.686275%);fill-opacity:1;" d="M 24.242188 16.148438 C 24.3125 16.175781 24.324219 16.222656 24.277344 16.285156 C 24.140625 16.480469 23.992188 16.660156 23.835938 16.828125 C 23.773438 16.742188 23.785156 16.652344 23.867188 16.558594 C 23.960938 16.386719 24.085938 16.25 24.242188 16.148438 Z M 24.242188 16.148438 "/>
<path style=" stroke:none;fill-rule:evenodd;fill:rgb(39.215686%,45.490196%,36.078431%);fill-opacity:1;" d="M 12.070312 16.355469 C 12.054688 16.527344 12.007812 16.6875 11.933594 16.828125 C 11.933594 16.785156 11.910156 16.761719 11.867188 16.761719 C 11.941406 16.683594 11.941406 16.617188 11.867188 16.558594 C 11.933594 16.488281 12.003906 16.421875 12.070312 16.355469 Z M 12.070312 16.355469 "/>
<path style=" stroke:none;fill-rule:evenodd;fill:rgb(7.058824%,7.843137%,6.666667%);fill-opacity:1;" d="M 18.121094 16.421875 C 18.179688 16.414062 18.226562 16.4375 18.257812 16.488281 C 17.984375 16.878906 17.847656 17.308594 17.851562 17.78125 C 18.390625 17.5 18.847656 17.105469 19.210938 16.59375 C 19.277344 16.550781 19.320312 16.574219 19.347656 16.660156 C 18.964844 17.164062 18.511719 17.582031 17.984375 17.917969 C 17.753906 17.863281 17.664062 17.71875 17.714844 17.476562 C 17.785156 17.097656 17.921875 16.746094 18.121094 16.421875 Z M 18.121094 16.421875 "/>
<path style=" stroke:none;fill-rule:evenodd;fill:rgb(9.411765%,10.588235%,8.627451%);fill-opacity:1;" d="M 14.992188 16.082031 C 15.109375 16.070312 15.222656 16.082031 15.335938 16.117188 C 15.414062 16.359375 15.347656 16.5625 15.128906 16.726562 C 14.96875 16.785156 14.867188 16.730469 14.824219 16.558594 C 14.621094 16.886719 14.609375 17.214844 14.789062 17.542969 C 15.105469 17.550781 15.367188 17.425781 15.570312 17.171875 C 15.730469 16.941406 15.890625 16.714844 16.046875 16.488281 C 15.929688 17.105469 15.566406 17.515625 14.960938 17.714844 C 14.632812 17.613281 14.488281 17.386719 14.519531 17.035156 C 14.570312 16.65625 14.730469 16.339844 14.992188 16.082031 Z M 14.992188 16.082031 "/>
<path style=" stroke:none;fill-rule:evenodd;fill:rgb(65.490196%,75.686275%,60%);fill-opacity:1;" d="M 15.0625 16.21875 C 15.140625 16.203125 15.210938 16.226562 15.265625 16.285156 C 15.203125 16.550781 15.066406 16.609375 14.859375 16.457031 C 14.941406 16.386719 15.007812 16.304688 15.0625 16.21875 Z M 15.0625 16.21875 "/>
<path style=" stroke:none;fill-rule:evenodd;fill:rgb(7.843137%,9.019608%,7.45098%);fill-opacity:1;" d="M 26.894531 15.46875 C 26.996094 15.472656 27.03125 15.515625 26.996094 15.605469 C 26.523438 15.90625 26.195312 16.316406 26.011719 16.828125 C 26.480469 16.789062 26.867188 16.949219 27.164062 17.304688 C 27.46875 17.082031 27.765625 16.84375 28.050781 16.59375 C 28.117188 16.546875 28.1875 16.546875 28.253906 16.59375 C 27.90625 16.871094 27.578125 17.179688 27.269531 17.511719 C 27.195312 17.871094 27.023438 18.175781 26.757812 18.429688 C 26.671875 18.460938 26.578125 18.472656 26.484375 18.460938 C 26.582031 18.105469 26.75 17.789062 26.996094 17.511719 C 27.042969 17.417969 27.042969 17.328125 26.996094 17.238281 C 26.707031 17.019531 26.378906 16.917969 26.011719 16.933594 C 25.84375 16.71875 25.855469 16.503906 26.042969 16.285156 C 26.277344 15.953125 26.558594 15.679688 26.894531 15.46875 Z M 26.894531 15.46875 "/>
<path style=" stroke:none;fill-rule:evenodd;fill:rgb(9.019608%,9.803922%,8.235294%);fill-opacity:1;" d="M 6.152344 19.890625 C 6.554688 20.003906 6.917969 19.921875 7.242188 19.652344 C 8.167969 18.703125 9.015625 17.695312 9.792969 16.625 C 9.863281 16.558594 9.941406 16.546875 10.03125 16.59375 C 9.265625 17.628906 8.449219 18.625 7.582031 19.585938 C 7.226562 19.953125 6.796875 20.113281 6.289062 20.058594 C 6.203125 20.03125 6.160156 19.976562 6.152344 19.890625 Z M 6.152344 19.890625 "/>
<path style=" stroke:none;fill-rule:evenodd;fill:rgb(49.411765%,57.254902%,45.490196%);fill-opacity:1;" d="M 26.824219 17.984375 C 26.910156 18.054688 26.898438 18.121094 26.792969 18.191406 C 26.761719 18.117188 26.769531 18.046875 26.824219 17.984375 Z M 26.824219 17.984375 "/>
</g>
</svg>
